<svg xmlns="http://www.w3.org/2000/svg" xml:space="preserve" width="2000" height="137" data-id="lg_OhIoRHPRIJZHe55uA0" data-version="1" viewBox="0 0 2000 137"><g data-padding="20"><g transform="translate(10 1.815)scale(.97351)"><rect width="560" height="125.43" x="326.397" y="-393.26" fill="none" rx="0" ry="0" transform="translate(507.81 400.5)"/><path fill="#1b1b1b" d="M872.727 105.215q-8.66 0-16.04-2.88-7.38-2.89-12.1-8.99-4.72-6.11-5.72-15.54h20.21q.77 3.1 2.88 5.05 2.11 1.94 5.27 2.83 3.17.88 6.83.88 2.22 0 4.55-.44t3.94-1.66q1.61-1.23 1.61-3.56 0-1.66-.94-2.72-.95-1.05-2.67-1.77t-4.27-1.28q-1-.22-2.05-.44-1.06-.22-2.06-.45-1-.22-2.11-.44-5.66-1.22-10.87-2.83-5.22-1.61-9.22-4.27-3.99-2.67-6.32-7.11t-2.33-11.21q0-6.22 2.22-10.49t5.88-6.88 7.99-3.94 8.55-1.83 7.55-.5q8.21 0 14.43 3.05 6.21 3.05 10.04 8.94 3.83 5.88 4.61 14.2h-19.43q-.33-2.44-2-4.16-1.66-1.72-4.27-2.66-2.61-.95-6.05-.95-2 0-3.77.34-1.78.33-3.05 1-1.28.66-2.06 1.66t-.78 2.33q0 1.78 1.39 3t4.11 2.11 6.71 1.88q1.89.45 3.67.84 1.77.39 3.55.83 4.88 1.11 9.16 2.55 4.27 1.45 7.55 3.78 3.27 2.33 5.16 6.27 1.88 3.94 1.88 10.04 0 7-2.66 11.83-2.66 4.82-7.22 7.82-4.55 3-10.21 4.39-5.66 1.38-11.54 1.38m78.13-.9h-21.31l-18.54-58.49h21.32l8.65 34.96 9.66-34.96h20.65l9.54 34.96 8.55-34.96h20.76l-18.54 58.49h-21.2l-9.88-34.29Zm86.59.01h-19.64v-58.49h19.64Zm-9.77-62.49q-5.32 0-8.6-3.16-3.27-3.17-3.27-8.27 0-5.22 3.44-8.55t8.55-3.33q4.88 0 8.32 3.17 3.44 3.16 3.44 8.6 0 5.21-3.27 8.38-3.28 3.16-8.61 3.16m47.4 62.49h-19.65v-40.95h-8.32v-17.54h8.32v-4.66q0-6.89 2.34-11.22 2.33-4.32 7.16-6.32 4.82-2 12.04-2h11.65v17.43h-9.1q-1.55 0-2.55.44t-1.44 1.39q-.45.94-.45 2.27v2.67h13.54v17.54h-13.54Zm56.28-.01h-5.11q-7.77 0-13.26-1.66-5.5-1.67-8.44-5.94t-2.94-12.38v-20.97h-8.1v-17.54h8.1v-14.54h19.65v14.54h10.77v17.54h-10.77v17.98q0 2.11.72 3.72t4.16 1.61h5.22Zm29.64.01h-19.65v-58.49h18.09l1.11 5.33q2.78-2.89 5.94-4.28t6.16-1.83 5.11-.44q8.21 0 12.93 3.77t6.71 9.99q2 6.22 2 13.65v32.3h-19.64v-30.63q0-1.78-.39-3.72t-1.34-3.61q-.94-1.66-2.6-2.72-1.67-1.05-4.33-1.05-3.44 0-5.72 1.55-2.28 1.56-3.33 4.17-1.05 2.6-1.05 5.82Zm80.03.89q-8.66 0-15.6-3.44t-11.04-10.15q-4.11-6.72-4.11-16.38 0-9.88 4.16-16.7 4.17-6.83 11.05-10.38t15.2-3.55q8.55 0 15.38 3.66 6.82 3.66 10.88 10.54 4.05 6.89 4.05 16.77 0 9.54-3.89 16.2-3.88 6.66-10.65 10.05-6.77 3.38-15.43 3.38m-.34-18.2q4.22 0 6.66-1.78 2.45-1.77 3.44-4.49 1-2.72 1-5.39 0-2.66-1-5.55-.99-2.88-3.38-4.88t-6.72-2q-4.21 0-6.71 2t-3.5 4.83-1 5.6q0 2.78 1.06 5.5 1.05 2.72 3.49 4.44 2.45 1.72 6.66 1.72m74.92 17.3h-5.11q-7.77 0-13.26-1.66-5.5-1.67-8.44-5.94t-2.94-12.38v-20.97h-8.1v-17.54h8.1v-14.54h19.65v14.54h10.76v17.54h-10.76v17.98q0 2.11.72 3.72t4.16 1.61h5.22Zm37.64.9q-8.99 0-15.71-3.6-6.71-3.61-10.43-10.27t-3.72-15.88q0-9.21 3.77-16.15 3.78-6.93 10.55-10.82 6.77-3.88 15.76-3.88 6.44 0 11.54 1.99 5.11 2 8.77 5.78 3.67 3.77 5.61 9.1t1.94 11.99q0 1.88-.17 3.6-.16 1.72-.61 3.61h-37.74q.23 2.11 1.39 4 1.17 1.88 3.28 2.99 2.1 1.11 5.32 1.11 2.67 0 4.61-.61t3.16-1.61q1.22-.99 1.56-1.99h19.2q-1.55 7.21-5.72 11.82-4.16 4.6-9.99 6.71-5.82 2.11-12.37 2.11m-10.1-37.29h19.75q0-1.67-.94-3.5t-3.11-3.05q-2.16-1.22-5.71-1.22-3.44 0-5.66 1.22t-3.28 3.05q-1.05 1.83-1.05 3.5"/><path fill="#777" d="M667.117 97.15a5.04 5.04 0 0 1-1.478-9.863c22.512-6.888 45.326-9.005 69.468-6.384L714.745 28.89c-4.973-12.7-45.058-5.745-58.23-3.46l-3.157.537a5.043 5.043 0 1 1-1.68-9.946l3.125-.52c19.908-3.46 61.353-10.635 69.316 9.71l23.47 59.926a5.04 5.04 0 0 1-5.443 6.82c-25.805-3.897-49.863-2.284-73.55 4.973q-.757.202-1.48.22"/><path fill="#777" d="M716.996 115.21a5.04 5.04 0 0 1-3.36-8.804l25.872-23.184a5.04 5.04 0 0 1 6.737 7.493l-12.23 10.97q12.835-1.814 25.737-1.646 12.583.168 25.687 2.184l-17.841-52.87c-1.445-4.284-9.09-10.97-44.016-7.812a5.044 5.044 0 0 1-.908-10.046c20.63-1.848 48.72-2.369 54.466 14.616l20.563 60.984a5.04 5.04 0 0 1-5.78 6.552 176.4 176.4 0 0 0-32.305-3.528 158 158 0 0 0-41.396 4.94q-.621.167-1.226.167"/><path fill="#777" d="M717.013 115.242a5.04 5.04 0 0 1-4.654-3.074l-10.617-25.082a5.044 5.044 0 1 1 9.29-3.932l10.618 25.083a5.04 5.04 0 0 1-4.637 7.005m-40.286 21.79a5.04 5.04 0 0 1-4.906-3.814L639.9 6.513a5.04 5.04 0 1 1 9.76-2.453l31.955 126.705a5.04 5.04 0 0 1-4.888 6.267"/></g><path fill="transparent" stroke="transparent" d="M622.5 0h755v137h-755z"/></g></svg>